C:\Users\Nicos\Documents\OpenSimProjects\SprintingProject\Study1\PredictiveResults\IC_pred_Sprinting_optimum_27-October-2023__11-17-52_p02_maxVel_01___IKTD_Plus_2_GRF.mot
version=1
nRows=8
nColumns=127
inDegrees=yes
endheader
time	ground_force_vx	ground_force_vy	ground_force_vz	ground_force_px	ground_force_py	ground_force_pz	ground_torque_x	ground_torque_y	ground_torque_z	1_ground_force_vx	1_ground_force_vy	1_ground_force_vz	1_ground_force_px	1_ground_force_py	1_ground_force_pz	1_ground_torque_x	1_ground_torque_y	1_ground_torque_z	2_ground_force_vx	2_ground_force_vy	2_ground_force_vz	2_ground_force_px	2_ground_force_py	2_ground_force_pz	2_ground_torque_x	2_ground_torque_y	2_ground_torque_z	3_ground_force_vx	3_ground_force_vy	3_ground_force_vz	3_ground_force_px	3_ground_force_py	3_ground_force_pz	3_ground_torque_x	3_ground_torque_y	3_ground_torque_z	4_ground_force_vx	4_ground_force_vy	4_ground_force_vz	4_ground_force_px	4_ground_force_py	4_ground_force_pz	4_ground_torque_x	4_ground_torque_y	4_ground_torque_z	5_ground_force_vx	5_ground_force_vy	5_ground_force_vz	5_ground_force_px	5_ground_force_py	5_ground_force_pz	5_ground_torque_x	5_ground_torque_y	5_ground_torque_z	6_ground_force_vx	6_ground_force_vy	6_ground_force_vz	6_ground_force_px	6_ground_force_py	6_ground_force_pz	6_ground_torque_x	6_ground_torque_y	6_ground_torque_z	7_ground_force_vx	7_ground_force_vy	7_ground_force_vz	7_ground_force_px	7_ground_force_py	7_ground_force_pz	7_ground_torque_x	7_ground_torque_y	7_ground_torque_z	8_ground_force_vx	8_ground_force_vy	8_ground_force_vz	8_ground_force_px	8_ground_force_py	8_ground_force_pz	8_ground_torque_x	8_ground_torque_y	8_ground_torque_z	9_ground_force_vx	9_ground_force_vy	9_ground_force_vz	9_ground_force_px	9_ground_force_py	9_ground_force_pz	9_ground_torque_x	9_ground_torque_y	9_ground_torque_z	10_ground_force_vx	10_ground_force_vy	10_ground_force_vz	10_ground_force_px	10_ground_force_py	10_ground_force_pz	10_ground_torque_x	10_ground_torque_y	10_ground_torque_z	11_ground_force_vx	11_ground_force_vy	11_ground_force_vz	11_ground_force_px	11_ground_force_py	11_ground_force_pz	11_ground_torque_x	11_ground_torque_y	11_ground_torque_z	12_ground_force_vx	12_ground_force_vy	12_ground_force_vz	12_ground_force_px	12_ground_force_py	12_ground_force_pz	12_ground_torque_x	12_ground_torque_y	12_ground_torque_z	13_ground_force_vx	13_ground_force_vy	13_ground_force_vz	13_ground_force_px	13_ground_force_py	13_ground_force_pz	13_ground_torque_x	13_ground_torque_y	13_ground_torque_z
0.106673	328.488432	809.873068	-102.743233	0.422990	-0.018581	0.434251	0.000000	0.000000	0.000000	144.054841	374.719484	31.367608	0.377961	-0.011995	0.450564	0.000000	0.000000	0.000000	68.396183	255.849729	37.211623	0.346599	-0.009985	0.436822	0.000000	0.000000	0.000000	113.252868	373.914689	-18.016961	0.351780	-0.012804	0.415424	0.000000	0.000000	0.000000	-0.042259	0.132050	0.032907	0.262249	0.005323	0.456123	0.000000	0.000000	0.000000	-30.800957	121.973539	26.901954	0.318815	-0.006338	0.428171	0.000000	0.000000	0.000000	-0.002274	0.005739	0.001601	0.207679	0.008253	0.393570	0.000000	0.000000	0.000000	-0.000000	0.000000	-0.000000	0.404904	0.200891	0.098737	0.000000	0.000000	0.000000	-0.000000	0.000000	-0.000000	0.404149	0.224720	0.084758	0.000000	0.000000	0.000000	-0.000000	0.000000	0.000000	0.393796	0.239005	0.096453	0.000000	0.000000	0.000000	-0.000000	0.000000	0.000000	0.384474	0.234867	0.115455	0.000000	0.000000	0.000000	-0.000000	0.000000	0.000000	0.392124	0.284255	0.081226	0.000000	0.000000	0.000000	-0.000000	0.000000	0.000000	0.386247	0.252901	0.104853	0.000000	0.000000	0.000000	-0.000000	0.000000	0.000000	0.356048	0.308487	0.138452	0.000000	0.000000	0.000000
0.108715	371.351785	830.340917	-88.486282	0.422120	-0.019028	0.434520	0.000000	0.000000	0.000000	136.656033	334.813475	34.576268	0.377724	-0.011270	0.450503	0.000000	0.000000	0.000000	43.684604	189.324734	37.651159	0.347082	-0.008296	0.436814	0.000000	0.000000	0.000000	91.272750	298.574114	-4.330736	0.352112	-0.011223	0.415439	0.000000	0.000000	0.000000	-0.001145	0.003275	0.000797	0.264164	0.008976	0.455686	0.000000	0.000000	0.000000	-16.913460	62.034804	12.948940	0.319722	-0.003993	0.428019	0.000000	0.000000	0.000000	-0.000012	0.000027	0.000007	0.210282	0.013221	0.392839	0.000000	0.000000	0.000000	-0.000000	0.000000	-0.000000	0.445621	0.197545	0.098010	0.000000	0.000000	0.000000	-0.000000	0.000000	-0.000000	0.443302	0.221298	0.083689	0.000000	0.000000	0.000000	-0.000000	0.000000	0.000000	0.431300	0.235525	0.095271	0.000000	0.000000	0.000000	-0.000000	0.000000	0.000000	0.422061	0.231275	0.114215	0.000000	0.000000	0.000000	-0.000000	0.000000	0.000000	0.426995	0.280705	0.079731	0.000000	0.000000	0.000000	-0.000000	0.000000	0.000000	0.422825	0.249312	0.103510	0.000000	0.000000	0.000000	-0.000000	0.000000	0.000000	0.388926	0.304459	0.136465	0.000000	0.000000	0.000000
0.110195	395.239738	837.041249	-79.288494	0.421333	-0.019275	0.434709	0.000000	0.000000	0.000000	127.018575	301.721766	32.932786	0.377510	-0.010624	0.450440	0.000000	0.000000	0.000000	30.135201	142.853848	31.819744	0.347510	-0.006926	0.436807	0.000000	0.000000	0.000000	73.960267	244.183581	13.187867	0.352419	-0.009932	0.415447	0.000000	0.000000	0.000000	-0.000057	0.000153	0.000036	0.265816	0.011829	0.455354	0.000000	0.000000	0.000000	-7.687806	27.319169	5.638082	0.320520	-0.002124	0.427901	0.000000	0.000000	0.000000	-0.000000	0.000000	0.000000	0.212558	0.017081	0.392280	0.000000	0.000000	0.000000	-0.000000	0.000000	-0.000000	0.475284	0.195086	0.097619	0.000000	0.000000	0.000000	-0.000000	0.000000	-0.000000	0.471822	0.218765	0.083040	0.000000	0.000000	0.000000	-0.000000	0.000000	0.000000	0.458633	0.232922	0.094519	0.000000	0.000000	0.000000	-0.000000	0.000000	0.000000	0.449468	0.228590	0.113425	0.000000	0.000000	0.000000	-0.000000	0.000000	0.000000	0.452380	0.278023	0.078728	0.000000	0.000000	0.000000	-0.000000	0.000000	0.000000	0.449483	0.246619	0.102636	0.000000	0.000000	0.000000	-0.000000	0.000000	0.000000	0.412882	0.301405	0.135103	0.000000	0.000000	0.000000
0.110842	405.082936	838.127173	-73.593094	0.420954	-0.019356	0.434788	0.000000	0.000000	0.000000	122.101751	286.488948	32.138097	0.377414	-0.010308	0.450410	0.000000	0.000000	0.000000	25.767663	123.496489	28.111760	0.347717	-0.006291	0.436801	0.000000	0.000000	0.000000	65.329041	220.922337	20.259477	0.352569	-0.009331	0.415448	0.000000	0.000000	0.000000	-0.000014	0.000037	0.000009	0.266614	0.013128	0.455206	0.000000	0.000000	0.000000	-4.501694	15.978513	3.351429	0.320906	-0.001266	0.427847	0.000000	0.000000	0.000000	-0.000000	0.000000	0.000000	0.213662	0.018834	0.392031	0.000000	0.000000	0.000000	-0.000000	0.000000	-0.000000	0.488276	0.194005	0.097484	0.000000	0.000000	0.000000	-0.000000	0.000000	-0.000000	0.484315	0.217646	0.082790	0.000000	0.000000	0.000000	-0.000000	0.000000	0.000000	0.470612	0.231765	0.094219	0.000000	0.000000	0.000000	-0.000000	0.000000	0.000000	0.461483	0.227397	0.113109	0.000000	0.000000	0.000000	-0.000000	0.000000	0.000000	0.463498	0.276824	0.078313	0.000000	0.000000	0.000000	-0.000000	0.000000	0.000000	0.461166	0.245419	0.102281	0.000000	0.000000	0.000000	-0.000000	0.000000	0.000000	0.423380	0.300037	0.134530	0.000000	0.000000	0.000000
0.112884	442.352372	836.355397	-50.614788	0.419570	-0.019522	0.435005	0.000000	0.000000	0.000000	106.248837	235.940793	33.030064	0.377071	-0.009179	0.450277	0.000000	0.000000	0.000000	2.683481	66.868597	20.325669	0.348489	-0.004133	0.436782	0.000000	0.000000	0.000000	39.056085	149.260564	23.652557	0.353148	-0.007280	0.415448	0.000000	0.000000	0.000000	-0.000000	0.000000	0.000000	0.269484	0.017434	0.454741	0.000000	0.000000	0.000000	-0.875986	2.767681	0.493856	0.322321	0.001618	0.427675	0.000000	0.000000	0.000000	-0.000000	0.000000	0.000000	0.217650	0.024622	0.391246	0.000000	0.000000	0.000000	-0.000000	0.000000	-0.000000	0.529469	0.190564	0.097209	0.000000	0.000000	0.000000	-0.000000	0.000000	-0.000000	0.523925	0.214067	0.082145	0.000000	0.000000	0.000000	-0.000000	0.000000	-0.000000	0.508628	0.228033	0.093397	0.000000	0.000000	0.000000	-0.000000	0.000000	-0.000000	0.499629	0.223554	0.112245	0.000000	0.000000	0.000000	-0.000000	0.000000	0.000000	0.498761	0.272927	0.077103	0.000000	0.000000	0.000000	-0.000000	0.000000	-0.000000	0.498246	0.241542	0.101282	0.000000	0.000000	0.000000	-0.000000	0.000000	0.000000	0.456716	0.295581	0.132822	0.000000	0.000000	0.000000
0.114364	470.407502	827.261382	-31.401471	0.418362	-0.019547	0.435121	0.000000	0.000000	0.000000	93.290859	197.121376	32.603384	0.376778	-0.008227	0.450135	0.000000	0.000000	0.000000	-7.812611	32.667817	6.297835	0.349189	-0.002412	0.436779	0.000000	0.000000	0.000000	2.467276	101.126282	27.699449	0.353691	-0.005636	0.415457	0.000000	0.000000	0.000000	-0.000000	0.000000	0.000000	0.271937	0.020749	0.454422	0.000000	0.000000	0.000000	-0.175206	0.506933	0.072820	0.323562	0.003879	0.427563	0.000000	0.000000	0.000000	-0.000000	0.000000	0.000000	0.221054	0.029044	0.390698	0.000000	0.000000	0.000000	-0.000000	0.000000	-0.000000	0.559446	0.188051	0.097151	0.000000	0.000000	0.000000	-0.000000	0.000000	-0.000000	0.552757	0.211436	0.081815	0.000000	0.000000	0.000000	-0.000000	0.000000	-0.000000	0.536342	0.225263	0.092924	0.000000	0.000000	0.000000	-0.000000	0.000000	-0.000000	0.527452	0.220704	0.111747	0.000000	0.000000	0.000000	-0.000000	0.000000	-0.000000	0.524455	0.270007	0.076328	0.000000	0.000000	0.000000	-0.000000	0.000000	-0.000000	0.525283	0.238657	0.100678	0.000000	0.000000	0.000000	-0.000000	0.000000	0.000000	0.481050	0.292233	0.131692	0.000000	0.000000	0.000000
0.115011	484.328515	821.592385	-17.182815	0.417758	-0.019535	0.435154	0.000000	0.000000	0.000000	87.304815	179.962843	33.091487	0.376623	-0.007775	0.450052	0.000000	0.000000	0.000000	-5.523601	20.668295	3.260598	0.349533	-0.001617	0.436782	0.000000	0.000000	0.000000	-18.504237	81.678689	16.083953	0.353961	-0.004875	0.415465	0.000000	0.000000	0.000000	-0.000000	0.000000	0.000000	0.273113	0.022249	0.454290	0.000000	0.000000	0.000000	-0.070551	0.198829	0.027039	0.324163	0.004914	0.427519	0.000000	0.000000	0.000000	-0.000000	0.000000	0.000000	0.222684	0.031034	0.390468	0.000000	0.000000	0.000000	-0.000000	0.000000	-0.000000	0.572565	0.186950	0.097163	0.000000	0.000000	0.000000	-0.000000	0.000000	-0.000000	0.565377	0.210278	0.081708	0.000000	0.000000	0.000000	-0.000000	0.000000	-0.000000	0.548487	0.224037	0.092751	0.000000	0.000000	0.000000	-0.000000	0.000000	-0.000000	0.539650	0.219444	0.111566	0.000000	0.000000	0.000000	-0.000000	0.000000	-0.000000	0.535713	0.268707	0.076017	0.000000	0.000000	0.000000	-0.000000	0.000000	-0.000000	0.537135	0.237378	0.100447	0.000000	0.000000	0.000000	-0.000000	0.000000	0.000000	0.491726	0.290741	0.131228	0.000000	0.000000	0.000000
0.117053	476.298084	778.856605	15.592983	0.415749	-0.019296	0.435165	0.000000	0.000000	0.000000	59.119351	123.327345	27.636615	0.376211	-0.006142	0.449723	0.000000	0.000000	0.000000	-1.222551	3.797491	0.339885	0.350856	0.001080	0.436778	0.000000	0.000000	0.000000	-9.202270	29.435588	2.515191	0.355030	-0.002283	0.415474	0.000000	0.000000	0.000000	-0.000000	0.000000	0.000000	0.277315	0.027172	0.453901	0.000000	0.000000	0.000000	-0.002529	0.006384	0.000708	0.326377	0.008368	0.427380	0.000000	0.000000	0.000000	-0.000000	0.000000	0.000000	0.228461	0.037521	0.389791	0.000000	0.000000	0.000000	-0.000000	0.000000	-0.000000	0.614114	0.183456	0.097344	0.000000	0.000000	0.000000	-0.000000	0.000000	-0.000000	0.605362	0.206587	0.081515	0.000000	0.000000	0.000000	-0.000000	0.000000	-0.000000	0.587029	0.220107	0.092344	0.000000	0.000000	0.000000	-0.000000	0.000000	-0.000000	0.578375	0.215409	0.111140	0.000000	0.000000	0.000000	-0.000000	0.000000	-0.000000	0.571440	0.264509	0.075155	0.000000	0.000000	0.000000	-0.000000	0.000000	-0.000000	0.574757	0.233269	0.099855	0.000000	0.000000	0.000000	-0.000000	0.000000	-0.000000	0.525671	0.285919	0.129898	0.000000	0.000000	0.000000
